<?xml version="1.0" encoding="UTF-8"?>
<svg version="1.1" xmlns="http://www.w3.org/2000/svg" width="200" height="200">
<path d="M0 0 C66 0 132 0 200 0 C200 66 200 132 200 200 C134 200 68 200 0 200 C0 134 0 68 0 0 Z " fill="#FEFEFE" transform="translate(0,0)"/>
<path d="M0 0 C4.15063786 2.36460581 6.64758635 5.52196466 8.20947266 10.08105469 C8.81118759 13.40286049 8.80165258 16.71309544 8.8359375 20.078125 C8.8640619 21.63282202 8.89272653 23.18750934 8.921875 24.7421875 C8.96263841 27.16372809 8.99955829 29.58509875 9.02636719 32.00683594 C9.18455977 45.19136963 9.65076076 58.41243685 15.3125 70.5625 C20.30255345 82.65320352 18.87860066 98.24547444 14.625 110.375 C14.38861816 111.08897949 14.15223633 111.80295898 13.90869141 112.53857422 C6.25506544 135.58402257 6.25506544 135.58402257 -2.375 143.375 C-5.0165638 144.51073118 -7.61035389 145.53719413 -10.3125 146.5 C-11.02857422 146.76425781 -11.74464844 147.02851563 -12.48242188 147.30078125 C-18.4230866 149.47003232 -23.20380633 150.50599789 -29.61328125 150.54296875 C-30.32281952 150.54720352 -31.03235779 150.55143829 -31.76339722 150.55580139 C-34.07149122 150.56570825 -36.37938843 150.56571842 -38.6875 150.5625 C-39.47178375 150.56189575 -40.2560675 150.5612915 -41.06411743 150.56066895 C-50.91487641 150.54002564 -60.73695301 150.39684772 -70.5625 149.625 C-71.45557861 149.5633667 -72.34865723 149.5017334 -73.26879883 149.43823242 C-80.68420103 148.74754354 -86.51376834 146.67678506 -91.6953125 141.16796875 C-94.71991067 137.32117954 -96.07816158 133.39295934 -97.25 128.6875 C-97.5605835 127.48915527 -97.5605835 127.48915527 -97.87744141 126.26660156 C-99.45558444 119.81068035 -99.82911345 114.00803417 -99.375 107.375 C-99.30143915 105.55877234 -99.2329227 103.74233708 -99.16796875 101.92578125 C-99.02066223 98.03459356 -98.87157924 94.14372462 -98.69140625 90.25390625 C-98.65474854 89.4347876 -98.61809082 88.61566895 -98.58032227 87.77172852 C-98.375 85.375 -98.375 85.375 -97.86352539 83.02978516 C-97.24335525 79.65960519 -97.2451775 76.44628368 -97.2421875 73.01953125 C-97.24075241 71.96701424 -97.24075241 71.96701424 -97.23928833 70.89323425 C-97.23861 69.41148794 -97.24044001 67.9297386 -97.24462891 66.44799805 C-97.24994177 64.21200646 -97.24469303 61.97621944 -97.23828125 59.74023438 C-97.23526198 52.97778708 -97.34846191 46.30258638 -98.13916016 39.57739258 C-99.16000416 30.0442313 -99.86427526 19.04394533 -95.375 10.375 C-91.34949088 8.2014749 -87.03141061 7.76440235 -82.55078125 7.2265625 C-81.39992287 7.08047043 -81.39992287 7.08047043 -80.22581482 6.931427 C-77.71381492 6.61440368 -75.2007278 6.3071234 -72.6875 6 C-70.94622776 5.78206477 -69.20501737 5.56363482 -67.46386719 5.34472656 C-58.76042433 4.25623366 -50.05197543 3.21176698 -41.33984375 2.1953125 C-40.55406448 2.10355743 -39.76828522 2.01180237 -38.95869446 1.91726685 C-35.22356774 1.48222762 -31.48795071 1.05239808 -27.7512207 0.63134766 C-27.07076187 0.55351044 -26.39030304 0.47567322 -25.68922424 0.39547729 C-23.86565936 0.18689175 -22.04172935 -0.01849475 -20.21777344 -0.22363281 C-5.18778391 -2.34569592 -5.18778391 -2.34569592 0 0 Z " fill="#2529A8" transform="translate(141.375,22.625)"/>
<path d="M0 0 C-0.5259375 1.0209375 -0.5259375 1.0209375 -1.0625 2.0625 C-2.52630621 6.64909279 -1.49373092 10.51880723 0 15 C0.73251143 21.73212887 -1.58697408 26.73106053 -4.25 32.75 C-4.64574219 33.69488281 -5.04148437 34.63976563 -5.44921875 35.61328125 C-8.75173041 43.22529994 -8.75173041 43.22529994 -13 46 C-13.12117188 44.90300781 -13.24234375 43.80601563 -13.3671875 42.67578125 C-13.53609363 41.22131177 -13.70538481 39.76688696 -13.875 38.3125 C-13.95363281 37.59126953 -14.03226563 36.87003906 -14.11328125 36.12695312 C-14.59399313 32.07787998 -15.4030388 28.77947485 -17 25 C-17.07646165 22.6679198 -17.09143299 20.33154122 -17 18 C-18.65 17.67 -20.3 17.34 -22 17 C-23.15842044 18.6998232 -24.30122266 20.41029577 -25.4375 22.125 C-26.07558594 23.07632813 -26.71367188 24.02765625 -27.37109375 25.0078125 C-29.05353225 28.09833502 -29.63380804 30.52375519 -30 34 C-28.02 34 -26.04 34 -24 34 C-23.9498877 34.82089111 -23.89977539 35.64178223 -23.84814453 36.48754883 C-23.65575661 39.5873501 -23.45745092 42.68670528 -23.25537109 45.78588867 C-23.12804398 47.76518143 -23.0073005 49.74489423 -22.88671875 51.72460938 C-22.38968977 59.2756266 -21.57392979 66.59480519 -20 74 C-16.66945626 74.13478487 -16.66945626 74.13478487 -13 73 C-9.24208505 69.01375604 -7.4088955 64.45194 -7 59 C-7.66 58.67 -8.32 58.34 -9 58 C-8.42676569 54.13066838 -6.61046448 51.84777943 -4 49 C-3.34 49 -2.68 49 -2 49 C-0.68 53.62 0.64 58.24 2 63 C6.00001715 64.00000429 8.05523353 63.80688405 12 63 C11.67 63.66 11.34 64.32 11 65 C10.9310528 66.37342831 10.91532292 67.75002102 10.9375 69.125 C10.958125 70.40375 10.97875 71.6825 11 73 C5.25490872 75.16133659 -0.48942417 75.91688221 -6.54296875 76.6796875 C-11.35455007 77.38656422 -13.77915585 78.10614364 -17 82 C-17.66 82 -18.32 82 -19 82 C-18.99214478 83.49611816 -18.99214478 83.49611816 -18.98413086 85.02246094 C-18.96581128 88.77977576 -18.95447113 92.53708677 -18.94506836 96.29443359 C-18.94008898 97.91000028 -18.93330306 99.52556258 -18.92456055 101.14111328 C-18.87898429 109.78987856 -18.92722495 118.30813774 -19.88110352 126.91894531 C-19.92033936 127.60569336 -19.9595752 128.29244141 -20 129 C-19.67 129.33 -19.34 129.66 -19 130 C-12.70414017 129.5170356 -12.70414017 129.5170356 -7 127 C-7 126.01 -7 125.02 -7 124 C-8.32 123.34 -9.64 122.68 -11 122 C-11 120.02 -11 118.04 -11 116 C-10.47792969 116.28875 -9.95585938 116.5775 -9.41796875 116.875 C-2.10488053 120.56356288 5.07471853 121.2722835 13 119 C13.62457273 122.43515002 14 125.49064814 14 129 C18.65052872 129.26932521 18.65052872 129.26932521 23 128 C23.65555119 125.47266765 23.65555119 125.47266765 24 123 C24.99 123.66 25.98 124.32 27 125 C27 125.66 27 126.32 27 127 C32.98993047 127.3152595 36.63560356 126.68219822 42 124 C41.60792704 121.17707469 41.30624349 119.38021919 39.49609375 117.1328125 C37.74423238 114.63538088 37.55357447 113.14196862 37.375 110.125 C37.10233561 106.36334438 36.68423106 102.71439717 36 99 C38.11993789 100.99597156 39.69170851 102.92063638 41.15625 105.43359375 C41.53910156 106.08263672 41.92195313 106.73167969 42.31640625 107.40039062 C42.70699219 108.07263672 43.09757812 108.74488281 43.5 109.4375 C46.97030776 115.40327989 46.97030776 115.40327989 51 121 C52.91466367 120.87822312 52.91466367 120.87822312 55 120 C56.03789581 118.35666496 57.03567924 116.68756133 58 115 C59.30476623 113.96300296 60.63513925 112.95652126 62 112 C62.72794465 114.39138841 63.43243449 116.78586153 64.125 119.1875 C64.33253906 119.86103516 64.54007812 120.53457031 64.75390625 121.22851562 C65.62048688 124.29142994 66.10622566 126.55083595 65.3671875 129.67578125 C61.74107784 135.84016767 58.61531072 138.02092791 52 140.25 C51.2884375 140.50523437 50.576875 140.76046875 49.84375 141.0234375 C43.82733932 143.15612039 39.16429411 144.13103769 32.76171875 144.16796875 C32.05218048 144.17220352 31.34264221 144.17643829 30.61160278 144.18080139 C28.30350878 144.19070825 25.99561157 144.19071842 23.6875 144.1875 C22.90321625 144.18689575 22.1189325 144.1862915 21.31088257 144.18566895 C11.46012359 144.16502564 1.63804699 144.02184772 -8.1875 143.25 C-9.08057861 143.1883667 -9.97365723 143.1267334 -10.89379883 143.06323242 C-18.30920103 142.37254354 -24.13876834 140.30178506 -29.3203125 134.79296875 C-32.34491067 130.94617954 -33.70316158 127.01795934 -34.875 122.3125 C-35.08205566 121.51360352 -35.28911133 120.71470703 -35.50244141 119.89160156 C-37.08058444 113.43568035 -37.45411345 107.63303417 -37 101 C-36.92643915 99.18377234 -36.8579227 97.36733708 -36.79296875 95.55078125 C-36.64566223 91.65959356 -36.49657924 87.76872462 -36.31640625 83.87890625 C-36.27974854 83.0597876 -36.24309082 82.24066895 -36.20532227 81.39672852 C-36 79 -36 79 -35.48852539 76.65478516 C-34.86835525 73.28460519 -34.8701775 70.07128368 -34.8671875 66.64453125 C-34.86575241 65.59201424 -34.86575241 65.59201424 -34.86428833 64.51823425 C-34.86361 63.03648794 -34.86544001 61.5547386 -34.86962891 60.07299805 C-34.87494177 57.83700646 -34.86969303 55.60121944 -34.86328125 53.36523438 C-34.86026198 46.60278708 -34.97346191 39.92758638 -35.76416016 33.20239258 C-36.78500416 23.6692313 -37.48927526 12.66894533 -33 4 C-29.66950861 2.28887635 -26.61624474 1.68412581 -22.91015625 1.3671875 C-21.96076172 1.28339844 -21.01136719 1.19960938 -20.03320312 1.11328125 C-19.05287109 1.03464844 -18.07253906 0.95601562 -17.0625 0.875 C-16.08603516 0.78863281 -15.10957031 0.70226562 -14.10351562 0.61328125 C-9.38980522 0.21061853 -4.7356249 -0.11218062 0 0 Z " fill="#181A94" transform="translate(79,29)"/>
<path d="M0 0 C0.73033447 -0.03432129 1.46066895 -0.06864258 2.21313477 -0.10400391 C4.29296875 -0.12109375 4.29296875 -0.12109375 7.8125 0.4375 C12.41800762 5.43536324 11.9404737 12.8547531 11.83984375 19.296875 C11.82147461 21.21886719 11.82147461 21.21886719 11.80273438 23.1796875 C11.76996719 25.83610062 11.72877053 28.49214732 11.68554688 31.1484375 C11.62016477 38.82506619 12.06971035 45.95024891 13.8125 53.4375 C10.1683226 55.8669516 8.10008728 55.59929575 3.8125 55.4375 C2.8125 50.4375 2.8125 50.4375 1.8125 45.4375 C0.3275 45.9325 0.3275 45.9325 -1.1875 46.4375 C-8.69369913 47.17720621 -13.73321852 46.33442467 -20.1875 42.4375 C-20.6825 44.9125 -20.6825 44.9125 -21.1875 47.4375 C-19.5375 48.0975 -17.8875 48.7575 -16.1875 49.4375 C-16.25 51.25 -16.25 51.25 -17.1875 53.4375 C-21.17543991 55.58485226 -24.62474866 57.08932162 -29.1875 56.4375 C-29.8475 55.7775 -30.5075 55.1175 -31.1875 54.4375 C-31.16894299 51.91683909 -31.03291221 49.50540692 -30.8125 47 C-30.35735073 41.11811831 -30.1629697 35.31488612 -30.2890625 29.4140625 C-30.31145996 28.20935303 -30.33385742 27.00464355 -30.35693359 25.76342773 C-30.4100652 23.36397231 -30.4828708 20.96486074 -30.57666016 18.56665039 C-30.73625655 10.1646921 -30.73625655 10.1646921 -27.796875 6.26953125 C-26.93578125 5.66496094 -26.0746875 5.06039062 -25.1875 4.4375 C-24.5275 3.7775 -23.8675 3.1175 -23.1875 2.4375 C-15.63117149 0.6399593 -7.74656963 0.19464161 0 0 Z " fill="#DFDFED" transform="translate(89.1875,103.5625)"/>
<path d="M0 0 C2.60533932 1.18047233 4.08071223 2.1459694 5.89453125 4.375 C7.70895134 12.69742989 5.63544772 20.66694708 2.8671875 28.53515625 C0.91665724 33.53967763 0.91665724 33.53967763 1.890625 38.54296875 C2.60412109 39.54263672 2.60412109 39.54263672 3.33203125 40.5625 C5.89453125 44.21423706 5.89453125 44.21423706 5.89453125 46.375 C7.21453125 46.705 8.53453125 47.035 9.89453125 47.375 C10.70703125 49.0625 10.70703125 49.0625 10.89453125 51.375 C7.49084689 55.73597058 4.03030943 57.69419987 -1.10546875 59.375 C-3.21484375 59.171875 -3.21484375 59.171875 -5.10546875 58.375 C-7.42743606 53.38707023 -8.53820899 48.82069367 -9.10546875 43.375 C-12.0695138 46.18304268 -14.55045894 48.55815774 -16.10546875 52.375 C-14.62046875 52.87 -14.62046875 52.87 -13.10546875 53.375 C-13.52375052 58.9520903 -15.7196142 63.03014618 -19.10546875 67.375 C-22.3333843 69.5269437 -23.38947684 69.57586443 -27.10546875 69.375 C-29.08310049 64.24811435 -29.72621489 59.36107637 -30.23046875 53.9375 C-30.31538574 53.06383789 -30.40030273 52.19017578 -30.48779297 51.29003906 C-31.18211281 43.63156552 -31.31506592 36.06022975 -31.10546875 28.375 C-33.08546875 28.375 -35.06546875 28.375 -37.10546875 28.375 C-37.48054511 23.41075405 -36.59433205 20.73397457 -33.91796875 16.5625 C-33.32628906 15.60730469 -32.73460937 14.65210938 -32.125 13.66796875 C-30.10546875 11.375 -30.10546875 11.375 -27.4921875 10.42578125 C-26.70457031 10.40902344 -25.91695312 10.39226563 -25.10546875 10.375 C-24.44546875 11.035 -23.78546875 11.695 -23.10546875 12.375 C-23.13940803 14.00408557 -23.17652106 15.63317298 -23.23046875 17.26171875 C-23.08279956 19.75825097 -22.44597034 21.81235093 -21.66796875 24.1875 C-20.02629341 29.2286823 -19.43099556 34.09922071 -19.10546875 39.375 C-15.82417483 34.77973661 -13.50346163 30.15076168 -11.35546875 24.9375 C-11.03964844 24.21240234 -10.72382812 23.48730469 -10.3984375 22.74023438 C-7.63134681 16.07406135 -7.36877604 11.12550869 -10.10546875 4.375 C-9.85546875 2.125 -9.85546875 2.125 -9.10546875 0.375 C-5.8262513 -1.26460872 -3.49311116 -1.03691611 0 0 Z " fill="#E1E1ED" transform="translate(86.10546875,34.625)"/>
<path d="M0 0 C1.04285156 -0.00773437 2.08570313 -0.01546875 3.16015625 -0.0234375 C5.9375 0.375 5.9375 0.375 7.8203125 1.76953125 C8.9375 3.375 8.9375 3.375 8.75 5.4375 C7.9375 7.375 7.9375 7.375 5.9375 9.375 C4.6175 9.375 3.2975 9.375 1.9375 9.375 C2.22625 10.61894531 2.515 11.86289063 2.8125 13.14453125 C6.13221615 27.81472579 8.26858639 37.92871289 -0.0625 51.375 C-0.7225 52.035 -1.3825 52.695 -2.0625 53.375 C-4.69784777 53.19015597 -5.75946717 52.71702901 -7.51953125 50.73046875 C-7.96683594 50.01503906 -8.41414063 49.29960937 -8.875 48.5625 C-9.37902344 47.76328125 -9.88304688 46.9640625 -10.40234375 46.140625 C-13.3396424 41.24743101 -16.22917013 36.32913596 -19.0625 31.375 C-18.83252126 33.75346433 -18.57928509 36.12561266 -18.3125 38.5 C-18.250625 39.16515625 -18.18875 39.8303125 -18.125 40.515625 C-17.54528369 45.44321366 -15.95986614 48.41233964 -13.0625 52.375 C-12.875 54.5625 -12.875 54.5625 -14.0625 56.375 C-19.43380257 59.55393417 -23.01346758 59.81036362 -29.0625 58.375 C-31.30125493 55.01686761 -31.33199386 53.78777829 -31.40625 49.8515625 C-31.43468994 48.75368408 -31.46312988 47.65580566 -31.49243164 46.5246582 C-31.5155542 45.361521 -31.53867676 44.19838379 -31.5625 43 C-31.79083333 34.78841535 -32.1986922 26.89886527 -33.63671875 18.80859375 C-34.21743092 15.48947738 -34.49962417 12.72628532 -34.0625 9.375 C-32.07473458 7.09275082 -30.64207104 6.53164082 -27.75 5.75 C-23.16624677 6.81598912 -20.82955252 9.67993805 -18.0625 13.375 C-15.73700867 17.22906236 -13.68897073 21.22430326 -11.6640625 25.2421875 C-10.3698646 28.17021429 -10.3698646 28.17021429 -9.0625 29.375 C-9.11374023 28.60309326 -9.16498047 27.83118652 -9.21777344 27.03588867 C-9.4374361 23.54572229 -9.62532743 20.05455301 -9.8125 16.5625 C-9.89371094 15.34755859 -9.97492188 14.13261719 -10.05859375 12.88085938 C-10.11660156 11.71748047 -10.17460938 10.55410156 -10.234375 9.35546875 C-10.2972168 8.28192139 -10.36005859 7.20837402 -10.42480469 6.10229492 C-10.0625 3.375 -10.0625 3.375 -8.23364258 1.52612305 C-5.3749616 0.01047245 -3.22305122 -0.02396321 0 0 Z " fill="#E0E0ED" transform="translate(135.0625,97.625)"/>
<path d="M0 0 C2.66072535 0.20467118 4.50940676 0.71241086 6.8125 2.0625 C8 4 8 4 7.625 7.375 C7.40882767 12.01838157 9.63101681 15.13595569 12.1875 18.8125 C12.57437988 19.37565918 12.96125977 19.93881836 13.35986328 20.51904297 C15.84695657 23.93610181 18.23347434 26.09332183 22 28 C24.91050398 18.05096988 24.91050398 18.05096988 24.4609375 7.90625 C23.74735973 4.95518263 24.93383961 2.75947396 26 0 C28.31 0.33 30.62 0.66 33 1 C36.75162525 10.73636076 36.35879447 24.10404769 33 34 C29.30074921 40.239167 24.48775549 44.86194637 18.46875 48.84375 C17.9840625 49.2253125 17.499375 49.606875 17 50 C17 50.66 17 51.32 17 52 C17.88042969 51.79503906 18.76085937 51.59007812 19.66796875 51.37890625 C20.82941406 51.10949219 21.99085937 50.84007812 23.1875 50.5625 C24.33605469 50.29566406 25.48460938 50.02882812 26.66796875 49.75390625 C29.43923875 49.12687799 32.21091874 48.54100823 35 48 C33.25707331 54.10024342 28.65544938 57.05484769 23.5625 60.3125 C18.99221209 62.47737322 15.49331945 62.87603116 10.6875 61.1875 C9 60 9 60 7 57 C6.09025665 50.4043607 7.64228924 47.25320705 11.58984375 41.98046875 C13.17756207 39.95507609 13.17756207 39.95507609 14 37 C13.18595703 36.31164062 13.18595703 36.31164062 12.35546875 35.609375 C11.64003906 34.99578125 10.92460938 34.3821875 10.1875 33.75 C9.47980469 33.14671875 8.77210937 32.5434375 8.04296875 31.921875 C0.09068274 24.44094819 -1.46639284 15.64634762 -2.1171875 5.16015625 C-2 2 -2 2 0 0 Z " fill="#E0E0EE" transform="translate(100,36)"/>
<path d="M0 0 C-0.5259375 1.0209375 -0.5259375 1.0209375 -1.0625 2.0625 C-2.52630621 6.64909279 -1.49373092 10.51880723 0 15 C0.73251143 21.73212887 -1.58697408 26.73106053 -4.25 32.75 C-4.64574219 33.69488281 -5.04148437 34.63976563 -5.44921875 35.61328125 C-8.75173041 43.22529994 -8.75173041 43.22529994 -13 46 C-13.12117188 44.90300781 -13.24234375 43.80601563 -13.3671875 42.67578125 C-13.53609363 41.22131177 -13.70538481 39.76688696 -13.875 38.3125 C-13.95363281 37.59126953 -14.03226562 36.87003906 -14.11328125 36.12695312 C-14.59399313 32.07787998 -15.4030388 28.77947485 -17 25 C-17.07646165 22.6679198 -17.09143299 20.33154122 -17 18 C-19.475 17.01 -19.475 17.01 -22 16 C-22.38289206 6.23625255 -22.38289206 6.23625255 -20 2 C-17.39097955 0.69548978 -15.15758158 0.66533289 -12.25 0.4375 C-11.22390625 0.35371094 -10.1978125 0.26992188 -9.140625 0.18359375 C-6.08524366 0.00498315 -3.05976829 -0.03206344 0 0 Z " fill="#101288" transform="translate(79,29)"/>
<path d="M0 0 C1 1 1 1 1.11352539 2.94946289 C1.10828857 3.7821167 1.10305176 4.61477051 1.09765625 5.47265625 C1.09443359 6.37177734 1.09121094 7.27089844 1.08789062 8.19726562 C1.07951172 9.14279297 1.07113281 10.08832031 1.0625 11.0625 C1.05798828 12.01189453 1.05347656 12.96128906 1.04882812 13.93945312 C1.0370011 16.29303065 1.02052025 18.64648477 1 21 C-1.7084017 21.02714434 -4.41652721 21.04690846 -7.125 21.0625 C-7.88554688 21.07087891 -8.64609375 21.07925781 -9.4296875 21.08789062 C-10.17734375 21.09111328 -10.925 21.09433594 -11.6953125 21.09765625 C-12.7164917 21.10551147 -12.7164917 21.10551147 -13.75830078 21.11352539 C-16.5269469 20.97331406 -19.26552451 20.45574591 -22 20 C-22 14.72 -22 9.44 -22 4 C-15.33597377 -1.2011912 -8.11857312 -0.61749746 0 0 Z " fill="#11148E" transform="translate(91,114)"/>
<path d="M0 0 C2 2 2 2 2.375 4.4375 C2.25125 5.283125 2.1275 6.12875 2 7 C1.360625 7.474375 0.72125 7.94875 0.0625 8.4375 C-2.73718915 10.18679981 -2.73718915 10.18679981 -3 16 C-7.29 15.67 -11.58 15.34 -16 15 C-16 13.68 -16 12.36 -16 11 C-16.66 10.67 -17.32 10.34 -18 10 C-17.071875 9.2575 -16.14375 8.515 -15.1875 7.75 C-13.26684574 6.16219917 -11.87295851 4.82898261 -10.375 2.8125 C-7.40471618 -1.10287412 -4.56061565 -1.44019442 0 0 Z " fill="#4044C9" transform="translate(145,83)"/>
<path d="M0 0 C2.57997055 7.73991166 2.27011038 15.18201784 0 23 C-1.578125 24.85546875 -1.578125 24.85546875 -3 26 C-5 24 -5 24 -5.046875 21.06640625 C-4.94890625 19.91011719 -4.8509375 18.75382812 -4.75 17.5625 C-4.66234375 16.40878906 -4.5746875 15.25507812 -4.484375 14.06640625 C-4 11 -4 11 -2 8 C-1.33841957 5.95415921 -1.33841957 5.95415921 -0.875 3.8125 C-0.58625 2.554375 -0.2975 1.29625 0 0 Z " fill="#3E42C4" transform="translate(124,39)"/>
<path d="M0 0 C3.29714793 0.32971479 4.6226839 0.6226839 7 3 C7.25 5.5 7.25 5.5 7 8 C5 10 5 10 2.5 10.25 C0 10 0 10 -2 8 C-2.25 5 -2.25 5 -2 2 C-1.34 1.34 -0.68 0.68 0 0 Z " fill="#D5D6F1" transform="translate(140,82)"/>
<path d="M0 0 C0.66 0.33 1.32 0.66 2 1 C1.67 7.27 1.34 13.54 1 20 C-3 19 -3 19 -5 16 C-4.59740009 12.1976675 -3.26999947 8.75515987 -1.9375 5.1875 C-1.57527344 4.21167969 -1.21304688 3.23585937 -0.83984375 2.23046875 C-0.42412109 1.12638672 -0.42412109 1.12638672 0 0 Z " fill="#111275" transform="translate(91,55)"/>
<path d="M0 0 C-0.33 0.33 -0.66 0.66 -1 1 C-1.07148199 2.35243917 -1.08399454 3.70834367 -1.0625 5.0625 C-1.041875 6.361875 -1.02125 7.66125 -1 9 C-3.31 9.66 -5.62 10.32 -8 11 C-8 7.7 -8 4.4 -8 1 C-2.25 -1.125 -2.25 -1.125 0 0 Z " fill="#171B98" transform="translate(91,93)"/>
<path d="M0 0 C0.33 0 0.66 0 1 0 C1.05784708 4.12494151 1.09354407 8.24977944 1.125 12.375 C1.15013672 14.1384375 1.15013672 14.1384375 1.17578125 15.9375 C1.18222656 17.05898437 1.18867187 18.18046875 1.1953125 19.3359375 C1.20578613 20.37282715 1.21625977 21.4097168 1.22705078 22.47802734 C1 25 1 25 -1 27 C-2.823321 20.84629161 -3.2361959 15.40353322 -3 9 C-2.34 10.32 -1.68 11.64 -1 13 C-0.67 8.71 -0.34 4.42 0 0 Z " fill="#292C99" transform="translate(103,127)"/>
<path d="M0 0 C0.99 0.33 1.98 0.66 3 1 C3.67939174 2.99571323 4.34561559 4.99594773 5 7 C5.99 7.66 6.98 8.32 8 9 C7.67 10.98 7.34 12.96 7 15 C6.34 14.67 5.68 14.34 5 14 C5 12.68 5 11.36 5 10 C3.48765634 8.4363243 3.48765634 8.4363243 1.5 7.25 C0.8503125 6.82203125 0.200625 6.3940625 -0.46875 5.953125 C-0.9740625 5.63859375 -1.479375 5.3240625 -2 5 C-1.34 3.35 -0.68 1.7 0 0 Z " fill="#3235BB" transform="translate(135,84)"/>
<path d="M0 0 C0.66 0.33 1.32 0.66 2 1 C2.73075648 3.3140622 3.40138258 5.64828869 4 8 C2.02 8.33 0.04 8.66 -2 9 C-2 7.68 -2 6.36 -2 5 C-2.66 4.34 -3.32 3.68 -4 3 C-2.68 2.01 -1.36 1.02 0 0 Z " fill="#4246C3" transform="translate(126,78)"/>
<path d="M0 0 C1.47906892 -0.02689216 2.95827483 -0.04634621 4.4375 -0.0625 C5.26121094 -0.07410156 6.08492188 -0.08570312 6.93359375 -0.09765625 C9 0 9 0 10 1 C10.07271741 3.35313555 10.08370868 5.70833668 10.0625 8.0625 C10.05347656 9.35285156 10.04445313 10.64320312 10.03515625 11.97265625 C10.02355469 12.97167969 10.01195313 13.97070312 10 15 C9.67 15 9.34 15 9 15 C8.34 10.38 7.68 5.76 7 1 C4.69 1 2.38 1 0 1 C0 0.67 0 0.34 0 0 Z " fill="#3034AF" transform="translate(82,114)"/>
<path d="M0 0 C0.33 0 0.66 0 1 0 C2.15668038 4.74032407 3.14871639 9.09235906 3 14 C3.33 14.66 3.66 15.32 4 16 C3.34 16.66 2.68 17.32 2 18 C0.176679 11.84629161 -0.2361959 6.40353322 0 0 Z " fill="#383DAF" transform="translate(100,136)"/>
<path d="M0 0 C-0.28875 0.53625 -0.5775 1.0725 -0.875 1.625 C-2.16711808 4.35280484 -3.08558592 7.12612718 -4 10 C-4.66 10 -5.32 10 -6 10 C-5.38909774 3.52443609 -5.38909774 3.52443609 -3.5625 1.0625 C-2 0 -2 0 0 0 Z " fill="#4447C1" transform="translate(50,32)"/>
<path d="M0 0 C1.65 0 3.3 0 5 0 C5 1.98 5 3.96 5 6 C2.5 4.6875 2.5 4.6875 0 3 C0 2.01 0 1.02 0 0 Z " fill="#121485" transform="translate(117,155)"/>
</svg>
